# xmcd
#
# Track frame offsets: 
#        150
#        19813
#        32469
#        39018
#        46166
#        53823
#        59526
#        65653
#        72764
#        79128
#        92174
#        97302
#        102773
#        107591
#        111749
#        117807
#        127365
#        148527
#        150680
#        152620
#        154552
#        157668
#        159598
#        163158
#        164289
#        167517
#        174473
#        179506
#        181253
#        183282
#        184888
#        190061
#        201861
#        203717
#        209190
#        211019
#        212807
#        214638
#        215884
#        217585
#        225481
#        234469
#        236579
#        240977
#        243031
#        251099
#        260414
#        268265
#        275762
#        283589
#        292397
#        301575
#        304025
#        309224
#        312977
#
# Disc length: 4322 seconds
#
# Revision: 1
# Processed by: cddbd v1.5.2PL0 Copyright (c) Steve Scherf et al.
# Submitted via: ExactAudioCopy v1.0b6
#
DISCID=1910e037
DTITLE=ΠΑΝΟΣ ΚΙΑΜΟΣ (DJ ZRAF) - ΟΙ ΔΙΚΕΣ ΜΑΣ ΝΥΧΤΕΣ CD 2
DYEAR=2008
DGENRE=ΛΑΙΚΑ
TTITLE0=ΓΥΡΝΑ ΣΕ ΜΕΝΑ
TTITLE1=ΠΟΤΕ ΒΟΥΔΑΣ ΠΟΤΕ ΚΟΥΔΑΣ
TTITLE2=ΣΤΟΥ ΠΑΡΑΔΕΙΣΟΥ ΤΗΝ ΠΟΡΤΑ
TTITLE3=ΓΙΝΑΜΕ ΚΙ ΟΙ ΔΥΟ ΜΑΣ ΞΕΝΟΙ
TTITLE4=ΠΟΥ ΝΑ ΠΑΩ
TTITLE5=ΚΟΜΜΑΤΙΑ ΕΧΩ ΓΙΝΕΙ
TTITLE6=ΣΕ ΣΦΑΛΜΑ ΕΠΕΣΕΣ ΚΑΡΔΙΑ ΜΟΥ
TTITLE7=ΤΙ ΑΜΑΡΤΙΕΣ ΕΧΩ ΚΑΝΕΙ
TTITLE8=ΜΕ ΚΑΙΣ ΜΕ ΚΑΙΣ
TTITLE9=SOKERDE
TTITLE10=Ο ΜΑΓΚΑΣ ΤΟΥ ΒΟΤΑΝΙΚΟΥ
TTITLE11=ΚΑΘΕ ΗΛΙΟΒΑΣΙΛΕΜΑ
TTITLE12=ΜΑΓΙΣΣΕΣ ΦΕΡΤΕ ΒΟΤΑΝΑ
TTITLE13=ΛΕΓΕ ΜΕ ΠΑΛΙΟΠΑΙΔΟ
TTITLE14=ΔΡΟΜΟΙ ΣΤΗΝ ΣΤΑΧΤΗ
TTITLE15=Σ' ΕΥΧΑΡΙΣΤΩ
TTITLE16=ΗΛΙΕ ΜΟΥ ΣΕ ΠΑΡΑΚΑΛΩ
TTITLE17=ΠΛΗΡΩΝΩ
TTITLE18=ΔΕ ΘΑ ΜΑΘΕΙΣ ΠΟΤΕ
TTITLE19=ΤΙ ΘΕΛΩ ΕΓΩ ΕΔΩ
TTITLE20=Η ΑΥΤΟΚΑΤΑΣΤΡΟΦΗ ΣΟΥ
TTITLE21=ΑΠΟΡΩ ΑΝ ΑΙΣΘΑΝΕΣΑΙ ΤΥΨΕΙΣ
TTITLE22=ΘΑ 'ΠΡΕΠΕ
TTITLE23=ΚΑΡΔΙΑ ΕΙΣΑΙ ΕΣΥ
TTITLE24=ΕΙΣΑΙ ΜΙΑ ΠΛΗΓΗ ΑΚΟΜΑ
TTITLE25=ΤΟ ΠΑΡΤΥ
TTITLE26=Σ' ΕΚΔΙΚΗΘΗΚΑ
TTITLE27=ΕΠΗΡΕΑΣΤΗΚΑ
TTITLE28=ΠΟΙΑ ΜΕ ΚΑΤΑΡΑΣΤΗΚΕ
TTITLE29=ΔΥΟ ΦΩΝΕΣ
TTITLE30=ΚΙ ΑΝ ΜΟΥ ΛΕΙΠΕΙΣ
TTITLE31=ΜΑΖΕΨΕ ΤΑ ΚΑΙ ΠΙΣΩ
TTITLE32=ΤΙ ΟΝΕΙΡΑ ΝΑ ΚΑΝΩ
TTITLE33=ΕΔΩ ΣΕ ΘΕΛΩ ΚΑΡΔΙΑ ΜΟΥ
TTITLE34=ΑΣΤΟ ΝΑ ΜΕΙΝΟΥΜΕ ΦΙΛΟΙ
TTITLE35=ΔΕΝ ΣΕ ΠΑΝΤΡΕΥΟΜΑΙ
TTITLE36=ΣΕ ΜΟΙΡΑΖΟΜΟΥΝΑ
TTITLE37=ΘΑ ΕΚΡΑΓΩ
TTITLE38=ΓΥΡΝΑ ΠΙΣΩ
TTITLE39=ΕΓΩ ΔΕΝ ΕΙΜΑΙ ΕΓΩ
TTITLE40=ΑΡΑΓΕ
TTITLE41=ΣΑΒΒΑΤΟ
TTITLE42=Σ' ΕΝΑ ΧΑΡΤΑΚΙ ΕΓΡΑΨΑ
TTITLE43=ΝΑΥΑΓΙΑ
TTITLE44=ΚΑΝΕ ΚΑΤΙ ΝΑ ΧΑΣΩ ΤΟ ΤΡΕΝΟ
TTITLE45=ΦΙΛΟΞΕΝΟΥΜΕΝΟΣ
TTITLE46=ΕΙΣΑΙ ΠΑΝΤΟΥ
TTITLE47=ΣΥΝΟΔΕΥΕΤΑΙ
TTITLE48=ΣΕ ΤΙ ΚΟΣΜΟ ΒΡΕΘΗΚΑ
TTITLE49=ΤΟΥ ΧΡΟΝΟΥ ΤΕΤΟΙΑ ΜΕΡΑ
TTITLE50=ΣΤΗ ΦΩΤΙΑ ΤΟ ΧΕΡΙ ΜΟΥ
TTITLE51=ΒΑΛΕ ΤΕΛΟΣ ΛΟΙΠΟΝ
TTITLE52=ΔΥΟΜΙΣΗ
TTITLE53=ΑΣΕ ΜΕ ΜΙΑ ΝΥΧΤΑ ΜΟΝΟ
TTITLE54=ΘΑ ΒΓΑΙΝΩ ΘΑ ΠΙΝΩ (ΑΠΟΧΩΡΗΣΗ)
EXTD=
EXTT0=
EXTT1=
EXTT2=
EXTT3=
EXTT4=
EXTT5=
EXTT6=
EXTT7=
EXTT8=
EXTT9=
EXTT10=
EXTT11=
EXTT12=
EXTT13=
EXTT14=
EXTT15=
EXTT16=
EXTT17=
EXTT18=
EXTT19=
EXTT20=
EXTT21=
EXTT22=
EXTT23=
EXTT24=
EXTT25=
EXTT26=
EXTT27=
EXTT28=
EXTT29=
EXTT30=
EXTT31=
EXTT32=
EXTT33=
EXTT34=
EXTT35=
EXTT36=
EXTT37=
EXTT38=
EXTT39=
EXTT40=
EXTT41=
EXTT42=
EXTT43=
EXTT44=
EXTT45=
EXTT46=
EXTT47=
EXTT48=
EXTT49=
EXTT50=
EXTT51=
EXTT52=
EXTT53=
EXTT54=
PLAYORDER=
